<svg width="178" height="179" viewBox="0 0 178 179" fill="none" xmlns="http://www.w3.org/2000/svg">
<path fill-rule="evenodd" clip-rule="evenodd" d="M153.053 0.165186C146.334 0.873841 139.602 5.88613 136.383 12.5763C133.873 17.7926 133.573 23.4517 135.514 28.9457L136.063 30.4984L135.004 31.5809C132.94 33.6915 127.262 38.9866 127.118 38.9353C127.038 38.9066 124.257 36.2706 120.94 33.0775C104.869 17.611 102.214 15.2715 97.274 12.2241C91.1047 8.41867 85.451 6.51296 80.2972 6.50207C77.6541 6.49645 74.179 7.12818 73.7032 7.70076C73.4747 7.97562 73.4491 7.94932 98.7017 33.3502C106.395 41.089 113.122 47.9224 113.65 48.5358L114.61 49.6511L111.845 52.522C110.324 54.1011 103.716 60.7814 97.1608 67.3673C79.9361 84.6712 73.5406 91.1803 73.5406 91.4067C73.5406 91.6934 74.6535 92.117 76.248 92.4376C78.1857 92.8269 82.2622 92.8229 84.4407 92.4292C87.984 91.7892 92.2617 90.0698 96.3874 87.6272C102.056 84.2715 105.557 81.2254 120.091 67.0044C123.966 63.2126 127.198 60.0897 127.272 60.0644C127.347 60.0392 129.355 61.9645 131.734 64.3429L136.061 68.667L135.413 70.6032C134.242 74.0978 133.95 77.3205 134.499 80.7021C135.961 89.7185 143.44 97.4344 152.372 99.1431C157.846 100.191 164.481 98.5891 169.193 95.083C179.708 87.2598 181.008 72.0376 171.966 62.6309C167.36 57.8398 161.987 55.6716 155.291 55.9016C152.01 56.0145 149.976 56.5068 146.793 57.9599L144.54 58.988L139.97 54.4237L135.4 49.8595L140.062 45.2032L144.725 40.5469L146.602 41.3785C150.303 43.0186 152.493 43.5096 156.109 43.5096C161.939 43.5096 167.026 41.4798 171.218 37.4799C175.678 33.2241 178 27.9027 178 21.9372C178 15.9461 175.757 10.5635 171.483 6.29434C166.579 1.39726 160.51 -0.621301 153.053 0.165186ZM158.38 11.1352C160.468 11.6252 162.109 12.5737 163.848 14.2951C165.633 16.0624 166.383 17.379 166.846 19.5612C167.215 21.2955 167.089 23.1776 166.477 25.104C165.067 29.5379 160.993 32.457 156.206 32.4643C153.107 32.4688 150.668 31.461 148.478 29.2705C146.274 27.0658 145.48 25.047 145.484 21.6549C145.486 19.3901 145.711 18.3533 146.569 16.6584C147.334 15.1473 149.507 12.968 151.059 12.1559C153.352 10.9559 156.027 10.5831 158.38 11.1352ZM12.9542 42.4368C2.60491 42.5636 1.29835 42.6445 0.749164 43.193C0.609097 43.3329 0.406355 44.0531 0.298808 44.7937C0.163646 45.7252 0.0791704 64.6843 0.0252148 106.283C-0.0501776 164.344 0.0268498 176.251 0.485563 177.437C0.770419 178.174 1.22931 178.321 3.83825 178.512C7.3817 178.77 82.5548 178.911 110.922 178.713C138.57 178.519 135.802 178.71 136.313 176.957C136.866 175.058 136.956 170.014 137.065 134.993L137.175 99.7502L135.914 98.345C131.604 93.5416 129.483 89.8147 128.146 84.6935C127.383 81.7729 127.272 80.3208 127.415 75.1233C127.509 71.7133 127.49 70.3608 127.347 70.3608C127.134 70.3608 125.739 71.6511 119.262 77.8356C113.881 82.9743 109.869 86.582 106.559 89.2583L103.879 91.4247V97.4027V103.381H68.9989H34.1186V79.8857V56.3909H66.1395H98.1603L101.474 53.0781C103.296 51.256 104.788 49.6835 104.788 49.5839C104.788 49.4842 103.172 47.7909 101.198 45.8211L97.6084 42.2396L60.5497 42.2737C40.1674 42.2924 18.7494 42.3659 12.9542 42.4368ZM127.605 46.758C128.944 47.3656 129.534 48.6955 129.119 50.1743C128.686 51.7192 127.079 52.7814 125.595 52.5035C124.754 52.3456 123.585 51.3044 123.308 50.4639C122.851 49.0827 123.533 47.429 124.821 46.7921C125.764 46.3257 126.628 46.3152 127.605 46.758ZM22.9093 59.4752C22.9558 59.5251 23.053 62.0763 23.1253 65.1448L23.257 70.7237H17.3973H11.5377L11.6665 65.5076C11.7374 62.6389 11.8391 60.1123 11.8923 59.8934C11.9458 59.6744 12.1247 59.4552 12.2902 59.4062C12.6815 59.2907 22.7988 59.3563 22.9093 59.4752ZM159.553 67.2642C163.128 68.5244 166.315 72.2331 166.925 75.8433C167.51 79.3048 166.123 83.2697 163.518 85.5885C162.358 86.621 160.388 87.6573 158.841 88.0483C157.432 88.4045 154.82 88.3979 153.41 88.0345C149.652 87.0663 146.289 83.6164 145.642 80.0672C145.533 79.4684 145.478 77.9989 145.521 76.8015C145.605 74.4387 145.862 73.5726 147.028 71.7215C148.362 69.6037 151.099 67.6389 153.594 67.0071C155.091 66.6283 158.119 66.7589 159.553 67.2642ZM23.2185 95.4885V101.022H17.4051H11.5917V95.4885V89.9549H17.4051H23.2185V95.4885ZM125.679 95.4885V101.022H120.139H114.598V95.4885V89.9549H120.139H125.679V95.4885ZM103.879 141.299V164.703H68.9989H34.1186V141.299V117.895H68.9989H103.879V141.299ZM23.2185 125.696V131.139H17.4051H11.5917V125.696V120.253H17.4051H23.2185V125.696ZM125.679 125.696V131.139H120.139H114.598V125.696V120.253H120.139H125.679V125.696ZM23.1571 154.316C23.0913 156.486 23.0375 159.058 23.0372 160.031L23.0368 161.8H17.5139H11.9908L11.8874 159.759C11.8306 158.637 11.7461 156.065 11.6998 154.044L11.6155 150.37H17.4459H23.2764L23.1571 154.316ZM125.679 156.176V161.982H120.139H114.598V156.176V150.37H120.139H125.679V156.176Z" fill="#1D1D20"/>
</svg>
