<svg width="167" height="160" viewBox="0 0 167 160" fill="none" xmlns="http://www.w3.org/2000/svg">
<path fill-rule="evenodd" clip-rule="evenodd" d="M132.535 0.0598055C129.831 0.314939 126.51 1.98863 124.203 4.26022C123.214 5.2341 118.433 11.989 99.2857 39.466C86.2544 58.1663 74.8501 74.3962 73.9428 75.5325C71.622 78.4388 71.4035 78.941 72.0814 79.8107C72.5403 80.3993 77.488 84.451 78.205 84.8252C79.1875 85.3381 79.6975 84.9485 82.2578 81.7301C83.0111 80.7832 96.0842 66.3351 111.309 49.6231C126.534 32.9111 139.247 18.8891 139.56 18.463C140.471 17.2226 141.614 14.865 142.111 13.2016C142.701 11.2284 142.782 8.14611 142.289 6.50719C141.589 4.18223 140.488 2.60564 138.744 1.43016C137.026 0.272417 135.007 -0.173121 132.535 0.0598055ZM133.992 2.77125C133.992 2.85165 133.628 3.1481 133.182 3.42992C130.8 4.93576 128.386 7.348 127.531 9.07592L127.141 9.86353L126.345 9.17732C125.907 8.79995 125.243 8.22633 124.87 7.90268L124.192 7.31442L124.838 6.47758C126.387 4.47042 128.614 3.2192 131.354 2.81635C132.73 2.61407 133.992 2.59255 133.992 2.77125ZM4.86569 25.1087C2.97001 25.623 1.41208 26.9475 0.533069 28.7923L0 29.9113V80.611V131.311L0.501853 132.344C1.5308 134.462 3.55323 135.93 5.85455 136.23C7.36949 136.427 159.659 136.423 161.176 136.226C163.516 135.922 165.449 134.499 166.523 132.291L167 131.311V80.611V29.9113L166.467 28.7923C165.89 27.5816 164.843 26.4132 163.759 25.7712C162.209 24.8533 161.915 24.8328 150.284 24.8328H139.524L134.967 29.8492C132.461 32.6082 130.41 34.9323 130.41 35.0139C130.41 35.0955 136.387 35.1621 143.716 35.1621H157.021V75.5325V115.903H83.5H9.97906V75.5325V35.1621H52.6956H95.4121L95.91 34.5165C96.4158 33.8606 101.783 26.1726 102.34 25.3062L102.644 24.8328L54.2221 24.8441C12.1588 24.8539 5.67715 24.8887 4.86569 25.1087ZM62.835 82.5488C61.4957 83.0217 60.5065 83.6795 59.6402 84.6729C58.7052 85.7447 58.2057 86.7795 57.1527 89.8263C54.6392 97.099 53.0026 98.6479 47.2513 99.1966C46.2193 99.295 44.7947 99.3758 44.0854 99.3758C43.2332 99.376 42.6838 99.4596 42.4649 99.623C42.1485 99.859 42.1604 99.8812 42.7308 100.123C43.6875 100.529 47.3552 101.079 50.4923 101.288C57.5991 101.76 65.6153 100.765 71.474 98.6827C76.121 97.0312 78.2048 94.8161 77.9953 91.7505C77.7623 88.3443 73.9917 84.421 69.3963 82.8031C68.1307 82.3576 67.5801 82.2636 65.93 82.2111C64.2167 82.1565 63.8249 82.1994 62.835 82.5488ZM65.596 146.503C64.9575 150.659 64.7138 151.655 64.0478 152.83C63.4295 153.921 62.6168 154.759 60.8979 156.079C58.1648 158.178 57.4719 159.232 58.5523 159.647C58.871 159.769 66.8718 159.827 83.5 159.827C100.128 159.827 108.129 159.769 108.448 159.647C109.528 159.232 108.836 158.179 106.102 156.079C103.805 154.314 102.709 152.892 102.207 151.023C102.067 150.502 101.706 148.468 101.404 146.503L100.855 142.931H83.5H66.1448L65.596 146.503Z" fill="#1D1D20"/>
</svg>
