<svg width="149" height="144" viewBox="0 0 149 144" fill="none" xmlns="http://www.w3.org/2000/svg">
<path fill-rule="evenodd" clip-rule="evenodd" d="M147.752 5.4052C147.065 4.35577 145.651 2.93048 144.61 2.23886C142.786 1.02653 140.215 0.980468 74.5 0.980465C8.7854 0.980463 6.21369 1.02653 4.38972 2.23886C3.34859 2.93047 1.93457 4.35576 1.24843 5.4052C0.0470234 7.24239 3.76455e-06 9.76117 1.02342e-06 72.4031C-1.71771e-06 135.045 0.0470177 137.564 1.24843 139.401C1.93457 140.45 3.34858 141.876 4.38972 142.567C6.21369 143.78 8.78539 143.826 74.5 143.826C140.215 143.826 142.786 143.78 144.61 142.567C145.651 141.876 147.065 140.45 147.752 139.401C148.953 137.564 149 135.045 149 72.4031C149 9.76118 148.953 7.24239 147.752 5.4052ZM138.456 23.6462C136.636 24.6276 128.31 24.5154 126.92 23.4907C125.951 22.7764 125.802 21.7116 125.966 16.648L126.159 10.6517L132.068 10.4575C135.317 10.35 138.372 10.4161 138.856 10.603C139.498 10.8513 139.736 12.5697 139.736 16.949C139.736 22.2036 139.576 23.0414 138.456 23.6462ZM132.782 134.154L126.159 134.154L125.966 128.158C125.73 120.858 126.067 120.469 132.621 120.469C139.611 120.469 139.822 120.697 139.595 128.016L139.405 134.154L132.782 134.154ZM132.319 109.654C131.18 110.802 84.7126 110.802 83.5735 109.654C82.427 108.499 82.4271 36.3076 83.5735 35.152C84.7126 34.0038 131.18 34.0038 132.319 35.152C133.465 36.3076 133.465 108.499 132.319 109.654ZM115.275 23.6462C113.456 24.6276 105.129 24.5154 103.74 23.4907C102.77 22.7764 102.622 21.7116 102.785 16.648L102.979 10.6517L108.887 10.4575C112.136 10.35 115.192 10.4161 115.676 10.603C116.318 10.8513 116.556 12.5697 116.556 16.949C116.556 22.2036 116.396 23.0414 115.275 23.6462ZM109.602 134.154L102.979 134.154L102.785 128.158C102.55 120.858 102.886 120.469 109.441 120.469C116.431 120.469 116.641 120.697 116.415 128.016L116.225 134.154L109.602 134.154ZM92.335 23.2884C91.5714 24.0575 89.9534 24.3372 86.2604 24.3372C79.4249 24.3372 78.8049 23.729 78.8049 17.0238C78.8049 13.9442 79.1202 11.6024 79.5997 11.119C80.719 9.99083 92.4834 10.0202 92.9371 11.1524C93.1205 11.6117 93.2947 14.2934 93.3232 17.1133C93.3623 20.9365 93.1113 22.506 92.335 23.2884ZM92.9735 133.432C92.647 134.289 91.4237 134.488 86.483 134.488C82.6304 134.488 80.1024 134.194 79.5997 133.687C79.1235 133.207 78.8049 130.887 78.8049 127.899C78.8049 121.087 79.4149 120.469 86.1459 120.469C92.8549 120.469 93.3755 120.973 93.3755 127.472C93.3755 130.169 93.1947 132.851 92.9735 133.432ZM69.099 23.1162C68.2161 24.0995 67.0008 24.3372 62.8541 24.3372C56.1451 24.3372 55.6245 23.8331 55.6245 17.3342C55.6245 10.109 55.4192 10.3179 62.517 10.3179C66.3696 10.3179 68.8976 10.6123 69.4003 11.119C70.6706 12.3995 70.4394 21.6234 69.099 23.1162ZM69.4003 133.687C68.9056 134.186 66.457 134.488 62.9098 134.488C59.3625 134.488 56.914 134.186 56.4192 133.687C55.9384 133.203 55.6245 130.849 55.6245 127.726C55.6245 120.964 56.1099 120.469 62.7396 120.469C69.5751 120.469 70.1951 121.077 70.1951 127.782C70.1951 130.862 69.8798 133.204 69.4003 133.687ZM62.115 109.654C61.5295 110.244 55.6205 110.455 39.6439 110.455C20.822 110.455 17.8311 110.317 16.927 109.407C16.0071 108.479 15.8866 104.199 15.8866 72.4031C15.8866 40.6075 16.0071 36.3276 16.927 35.3997C17.8311 34.4891 20.822 34.3509 39.6439 34.3509C55.6205 34.3509 61.5295 34.5619 62.115 35.152C63.2615 36.3076 63.2615 108.499 62.115 109.654ZM45.0714 23.6462C43.2521 24.6276 34.9257 24.5154 33.5362 23.4907C32.5666 22.7764 32.4182 21.7116 32.5818 16.648L32.7752 10.6517L38.6836 10.4575C41.9328 10.35 44.988 10.4161 45.4721 10.603C46.1139 10.8513 46.3523 12.5697 46.3523 16.949C46.3523 22.2036 46.192 23.0414 45.0714 23.6462ZM39.3982 134.154L32.7752 134.154L32.5818 128.158C32.346 120.858 32.6825 120.469 39.2372 120.469C46.2271 120.469 46.4377 120.697 46.2112 128.016L46.0212 134.154L39.3982 134.154ZM21.891 23.6462C20.0716 24.6276 11.7452 24.5154 10.3557 23.4907C9.3861 22.7764 9.23774 21.7116 9.40133 16.648L9.59473 10.6517L15.5031 10.4575C18.7523 10.35 21.8075 10.4161 22.2917 10.603C22.9334 10.8513 23.1718 12.5697 23.1718 16.949C23.1718 22.2036 23.0116 23.0414 21.891 23.6462ZM16.2177 134.154L9.59472 134.154L9.40132 128.158C9.16555 120.858 9.502 120.469 16.0568 120.469C23.0467 120.469 23.2573 120.697 23.0308 128.016L22.8407 134.154L16.2177 134.154Z" fill="#1D1D20"/>
</svg>
