<svg width="169" height="170" viewBox="0 0 169 170" fill="none" xmlns="http://www.w3.org/2000/svg">
<path fill-rule="evenodd" clip-rule="evenodd" d="M140.723 0.903983C139.885 1.1854 137.132 3.74585 128.886 11.912L121.639 19.0891L118.188 17.3295C107.839 12.0526 97.6607 9.12699 86.6332 8.25932C83.3098 7.99789 74.4626 8.15247 71.513 8.52367C49.5257 11.2902 30.719 21.8598 16.917 39.2071C15.1624 41.4126 11.9762 46.1444 10.4338 48.8358C5.95424 56.6521 2.53206 65.9351 0.959957 74.5345C-0.00131818 79.7918 -0.00960054 79.9101 0.0019603 88.1485C0.0142113 96.8192 0.207122 99.5854 1.10852 104.01C4.04118 118.408 9.95775 130.663 19.1698 141.421C21.4468 144.08 26.3295 148.867 29.0875 151.145C39.9065 160.08 51.778 165.619 66.3365 168.526C69.5204 169.161 72.8674 169.417 79.3641 169.52C86.1416 169.627 88.4667 169.504 92.9727 168.799C113.971 165.516 132.617 154.353 145.362 137.434C156.359 122.837 161.952 105.458 161.528 87.2007C161.365 80.1859 160.692 75.2688 158.969 68.5171C157.529 62.8742 155.944 58.7104 152.752 52.1776L150.668 47.9153L151.143 47.2942C151.403 46.9525 155.496 42.7673 160.238 37.9938L168.859 29.3146L168.956 27.3494C169.046 25.5173 169.025 25.3278 168.64 24.5559C168.413 24.1005 167.895 23.3581 167.489 22.9062C166.121 21.3846 164.82 21.2019 155.329 21.2002L148.47 21.1988L148.469 14.3487C148.468 7.06198 148.343 5.1107 147.801 3.88734C147.361 2.89421 146.077 1.62139 145.053 1.16334C144.102 0.737858 141.655 0.591206 140.723 0.903983ZM88.768 19.9101C98.5583 21.0751 107.115 23.9095 115.901 28.8984L118.274 30.2455V34.8641C118.274 38.5609 118.23 39.4553 118.054 39.345C117.934 39.2692 116.788 38.5013 115.509 37.6384C107.135 31.9914 98.46 28.6832 88.4229 27.3094C85.6526 26.9303 78.6971 26.7874 75.6228 27.0464C65.9133 27.865 56.1997 31.0663 48.1254 36.1092C43.6954 38.8759 40.7105 41.2625 36.8238 45.1451C32.5885 49.3756 29.4752 53.4079 26.6407 58.3334C22.9168 64.805 19.9118 73.5235 19.1429 80.0875C18.7899 83.1022 18.6311 91.2964 18.8584 94.7831C19.37 102.635 22.3791 112 26.9211 119.874C31.3108 127.485 37.9027 134.69 45.0427 139.682C53.7009 145.736 63.5968 149.466 73.8425 150.538C77.9869 150.972 84.7531 150.935 88.3366 150.459C91.919 149.983 94.7928 149.387 97.9994 148.455C114.596 143.633 128.57 131.931 136.301 116.381C139.584 109.777 141.546 103.198 142.458 95.731C142.764 93.2305 142.768 84.6421 142.465 82.2031C141.484 74.3058 139.66 68.0651 136.445 61.6099C134.819 58.3441 132.887 55.0977 131.364 53.0725C130.713 52.2062 130.18 51.4645 130.18 51.424C130.18 51.3837 132.257 51.3713 134.796 51.3966L139.411 51.4425L141.16 54.5871C147.593 66.1588 150.471 77.7185 150.138 90.6473C149.566 112.873 138.856 132.933 120.696 145.788C111.944 151.984 101.639 156.072 90.4935 157.771C87.3585 158.249 81.2002 158.45 76.6233 158.225C70.0098 157.9 65.6769 157.123 59.5976 155.17C36.5472 147.768 18.8555 128.993 13.2024 105.934C11.7283 99.9213 11.2234 95.6031 11.2234 89.0101C11.2234 83.6295 11.4462 80.9415 12.2592 76.5163C14.3683 65.0371 19.1257 54.5222 26.2691 45.5516C29.1705 41.9079 35.9044 35.5393 40.1089 32.4622C47.8055 26.8295 58.9217 22.1414 68.4071 20.5279C70.2655 20.2117 74.6058 19.7307 76.9484 19.5811C79.1686 19.4395 86.5361 19.6446 88.768 19.9101ZM136.909 22.5936L136.996 24.6495L133.329 28.3079L129.662 31.9664V29.6429V27.3196L133.149 23.8347C135.066 21.9181 136.677 20.3923 136.729 20.444C136.781 20.4955 136.862 21.463 136.909 22.5936ZM145.968 36.3637L142.348 39.9826H140.018H137.689L141.309 36.3637L144.93 32.7448H147.259H149.589L145.968 36.3637ZM87.5602 38.6865C96.6199 40.1148 104.119 43.1569 110.975 48.1853L112.391 49.2231L109.739 51.8676L107.087 54.512L105.131 53.2061C90.3213 43.3153 71.3593 43.185 56.8463 52.8742C53.8567 54.8701 52.5377 55.9328 50.224 58.2109C45.5859 62.7772 41.967 68.5928 39.6793 75.1563C37.2826 82.0334 36.7123 89.5979 38.0568 96.6784C39.3004 103.227 42.4751 110.367 46.2562 115.118C47.9765 117.28 52.7101 121.931 54.6963 123.411C67.7178 133.117 84.3728 134.852 98.9348 128.021C105.477 124.952 110.978 120.481 115.425 114.62C119.36 109.432 122.109 103.073 123.293 96.4203C123.824 93.4348 123.956 86.6597 123.546 83.4051C122.717 76.8218 120.648 71.1991 116.902 65.348C115.727 63.512 115.353 62.7917 115.436 62.5279C115.498 62.333 116.647 61.0555 117.99 59.6891L120.431 57.2046L122.364 60.0966C126.671 66.5407 129.578 73.6412 130.816 80.7384C131.251 83.2347 131.258 93.5913 130.827 96.5926C129.858 103.327 127.046 110.673 123.208 116.497C116.445 126.759 106.381 134.191 94.6299 137.601C89.8549 138.987 87.2382 139.321 81.2621 139.309C71.4293 139.288 65.895 138.094 58.1433 134.321C45.1593 128.002 35.3169 115.857 31.4777 101.418C30.7284 98.6006 30.4701 96.6801 30.2431 92.2434C29.7839 83.2749 30.7431 76.9775 33.662 69.7955C38.361 58.2329 47.7325 48.3531 59.0032 43.0794C63.788 40.8405 69.5201 39.1853 74.4464 38.6197C75.348 38.5161 76.3185 38.3996 76.6033 38.3605C77.9234 38.1794 85.8367 38.4148 87.5602 38.6865ZM82.9013 57.2198C85.9914 57.453 87.9448 57.804 90.1955 58.5307C93.1894 59.4975 97.6637 61.5837 98.2462 62.2847C98.3747 62.4393 98.4096 62.6985 98.334 62.9371C98.265 63.155 95.6302 65.9243 92.4789 69.0912L86.7492 74.849L84.437 74.378C80.4078 73.5574 77.799 73.7804 74.5456 75.2235C70.2812 77.115 67.2169 80.853 66.0484 85.5889C65.6141 87.3489 65.6617 90.8291 66.1447 92.629C67.92 99.2456 73.8809 103.917 80.5495 103.917C84.6227 103.917 88.2045 102.407 91.1822 99.436C93.7057 96.9181 95.1708 93.9441 95.6655 90.3357C95.875 88.8075 95.8415 88.357 95.294 85.3445C94.9938 83.6929 94.9741 83.3188 95.1624 82.8458C95.4845 82.036 105.963 71.596 106.604 71.4457C107.317 71.2787 107.632 71.6387 108.78 73.9314C111.612 79.586 112.706 84.2173 112.526 89.7856C112.399 93.7197 111.757 96.8919 110.383 100.384C106.758 109.594 99.9032 116.067 90.3834 119.269C87.1599 120.353 85.7663 120.531 80.4856 120.532C76.4493 120.532 75.7208 120.489 74.2738 120.165C66.9691 118.531 60.9159 114.832 56.0286 109.015C50.4311 102.353 48.1829 94.6908 49.0929 85.3781C49.8092 78.0493 52.7313 71.8281 57.8742 66.6822C62.5577 61.9962 67.0195 59.5019 73.741 57.8123C76.636 57.0845 79.0443 56.9287 82.9013 57.2198ZM82.3997 85.7061C84.3033 86.7097 84.8637 89.3448 83.5663 91.1925C82.8473 92.2167 80.5902 92.7374 79.1915 92.2022C78.5664 91.9628 77.7825 91.2471 77.4506 90.6128C77.0679 89.8811 77.1359 87.9736 77.5771 87.0632C78.3772 85.4126 80.637 84.7765 82.3997 85.7061Z" fill="#1D1D20"/>
</svg>
