<svg width="193" height="138" viewBox="0 0 193 138" fill="none" xmlns="http://www.w3.org/2000/svg">
<path fill-rule="evenodd" clip-rule="evenodd" d="M44.2214 0.887938C40.8377 1.33112 36.615 2.66242 32.9941 4.42745C24.6315 8.50398 17.6841 15.4509 13.7567 23.6637C11.9496 27.4427 10.4447 32.8855 10.0537 37.056C9.77887 39.9889 8.26823 51.3544 5.80894 68.9932C2.05135 95.9457 0 111.714 0 113.647C0 119.489 3.38411 126.557 8.59561 131.6C10.828 133.76 12.3093 134.793 15.3625 136.32L17.8225 137.551L24.2265 137.439C31.0749 137.32 31.6746 137.247 34.8654 136.158C40.1258 134.363 43.724 131.845 47.9244 127.019C54.9087 118.995 60.8441 110.309 68.352 97.1256L71.4052 91.7643L81.8619 91.7637C87.6129 91.7635 98.9629 91.822 107.084 91.894L121.849 92.0245L123.012 94.1119C132.228 110.651 139.483 121.224 146.745 128.699C150.459 132.523 153.471 134.52 157.781 136.017C161.371 137.265 161.81 137.321 168.825 137.44L175.24 137.549L177.689 136.321C180.768 134.778 182.221 133.755 184.536 131.502C189.524 126.647 192.684 120.256 192.977 114.435C193.062 112.744 192.932 111.174 192.267 105.859C191.21 97.4185 189.067 81.4109 186.354 61.6989C185.16 53.0246 183.827 43.2217 183.391 39.9146C182.955 36.6075 182.423 33.0743 182.208 32.0632C181.054 26.6189 177.979 20.1979 174.353 15.666C171.747 12.4076 167.759 8.86258 164.254 6.68671C160.248 4.20093 154.399 1.84605 150.569 1.17774C148.138 0.753486 137.857 0.757429 135.4 1.18385C131.165 1.9186 124.648 4.62104 120.497 7.3635L118.375 8.76598L96.5644 8.76125L74.7538 8.75632L72.784 7.46483C68.5647 4.69852 62.1725 2.05266 58.1091 1.39085C54.1366 0.743826 47.2314 0.493651 44.2214 0.887938ZM55.7453 6.97375C61.3807 7.95217 65.7477 9.80275 70.7904 13.3496L72.9627 14.8774H96.4319H119.901L122.935 12.8567C127.535 9.7927 131.255 8.13394 135.688 7.1703C138.409 6.57887 145.161 6.41958 148.256 6.874C159.145 8.47283 168.53 15.3703 173.631 25.5232C175.898 30.0366 176.444 32.2304 177.775 42.1963C178.37 46.65 179.428 54.4125 180.126 59.4464C186.733 107.115 186.926 108.589 187.064 112.365C187.156 114.884 187.12 115.296 186.655 117.092C185.679 120.864 183.372 124.743 180.487 127.467C178.872 128.992 176.681 130.483 175.036 131.178C173.866 131.672 173.721 131.685 169.403 131.685C165.894 131.685 164.56 131.608 163.001 131.314C158.405 130.449 155.218 128.893 152.136 126.008C145.767 120.048 133.384 102.044 127.832 90.6741C127.09 89.1535 126.267 87.7063 126.003 87.4583C124.642 86.179 121.973 86.0517 96.5201 86.0517C71.0965 86.0517 68.3971 86.18 67.0445 87.4518C66.7844 87.6962 65.9587 89.1432 65.2096 90.6676C59.1129 103.07 46.4587 121.129 39.8299 126.887C38.1337 128.361 36.0495 129.533 33.7147 130.327C30.6359 131.374 28.6285 131.65 23.9331 131.668C20.0892 131.684 19.7025 131.652 18.4682 131.226C15.7846 130.298 12.3818 127.555 9.99988 124.401C8.62003 122.573 6.61931 118.6 6.27538 117.004C5.64446 114.076 6.06659 109.286 8.56941 90.9747C14.467 47.8273 16.4179 33.8639 16.736 32.5217C18.3873 25.5559 22.4002 19.2201 28.2666 14.3167C33.4092 10.0184 39.3536 7.44748 46.0933 6.60687C48.2729 6.3352 53.1298 6.51973 55.7453 6.97375ZM45.0099 17.1483C36.5248 18.7229 28.3907 24.8834 24.3447 32.7999C23.0673 35.2991 22.2548 37.6256 21.6528 40.506C21.0355 43.461 21.0339 48.2289 21.6495 51.1518C22.9346 57.2541 25.4856 62.0698 29.6431 66.2411C33.6447 70.2563 37.8859 72.6122 43.5325 73.9567C46.345 74.6262 52.102 74.819 55.0994 74.3439C58.8976 73.7418 62.4978 72.2788 66.1852 69.8388C70.5867 66.9266 73.7447 63.3055 76.0354 58.5446C78.0802 54.2948 78.7644 51.5202 78.9273 46.8146C79.0921 42.0513 78.5733 38.8684 77.0057 35.0272C73.3352 26.0336 64.1938 18.6048 55.1307 17.2506C52.6175 16.8751 46.7993 16.8163 45.0099 17.1483ZM137.393 17.0539C133.329 17.5874 128.732 19.4693 125.019 22.1203C122.855 23.6653 119.748 26.805 118.139 29.0717C115.739 32.4533 113.942 36.6036 113.126 40.65C112.601 43.2505 112.65 48.6116 113.222 51.2632C115.186 60.3674 120.464 67.3842 128.388 71.4276C131.239 72.8825 134.802 74.1101 137.049 74.4123C139.431 74.7325 144.355 74.6919 146.553 74.334C151.628 73.5076 155.871 71.5518 159.948 68.1603C165.225 63.7701 168.606 58.2811 170.039 51.7793C170.614 49.1711 170.658 42.7069 170.12 40.0132C168.343 31.1149 160.982 22.0946 152.97 18.9959C148.446 17.2461 142.027 16.4459 137.393 17.0539ZM53.9979 23.0516C65.157 24.9991 73.138 34.4618 73.1254 45.7303C73.1197 50.7261 71.6219 55.3369 68.741 59.2254C64.034 65.5789 57.523 68.9108 49.8593 68.8878C43.6773 68.8692 38.3715 66.5585 33.7525 61.8732C30.7749 58.8528 28.8477 55.5725 27.8145 51.7667C27.3398 50.0178 27.2992 49.5563 27.2914 45.8289C27.2833 42.0002 27.3116 41.6844 27.8293 39.8275C30.2411 31.1776 37.3641 24.6699 46.1918 23.0516C48.0877 22.704 52.0058 22.704 53.9979 23.0516ZM145.264 22.9686C149.604 23.4662 154.478 25.9807 158.068 29.5735C165.021 36.532 166.779 47.1778 162.414 55.8832C161.21 58.2836 159.967 59.999 157.978 62.0045C153.179 66.8428 147.344 69.1322 140.566 68.8353C137.729 68.7111 135.716 68.2932 133.239 67.314C126.606 64.6912 121.133 58.6267 119.467 52.0515C116.987 42.2693 120.46 32.5915 128.504 26.8663C130.291 25.5941 133.412 24.0866 135.36 23.5545C138.025 22.8264 141.982 22.5924 145.264 22.9686ZM139.147 26.2662C137.362 26.9041 135.069 29.1015 134.184 31.0217C133.738 31.9908 133.704 32.2511 133.802 33.9788C133.947 36.5429 134.471 37.9024 135.844 39.2771C137.652 41.086 139.859 41.7818 142.795 41.4677C144.628 41.2717 145.753 40.7412 147.011 39.4807C149.557 36.9291 150.128 33.054 148.395 30.0852C147.636 28.7857 145.979 27.2344 144.66 26.5883C143.178 25.8626 140.684 25.7169 139.147 26.2662ZM46.8985 26.9264C44.2592 27.233 42.4442 28.5223 41.2511 30.9385C40.6417 32.1728 40.5213 32.6416 40.4331 34.1292C40.3763 35.0883 40.2526 35.971 40.1585 36.0902C40.0643 36.2097 39.252 36.3593 38.3534 36.4228C36.1231 36.5803 34.7203 37.142 33.3227 38.437C31.5574 40.0727 31.1417 41.0101 30.8996 43.9032C30.7881 45.2333 30.7511 46.9871 30.8171 47.8003C31.0466 50.6248 32.6764 52.8815 35.4124 54.1637C36.5248 54.6852 37.0283 54.7972 38.5588 54.8644L40.3809 54.9446L40.3824 55.8574C40.3917 61.5655 43.5686 64.5492 49.6389 64.5512C52.7421 64.5522 55.0411 63.711 56.8312 61.9193C58.1626 60.5867 58.711 59.1789 58.8475 56.7436L58.9484 54.9422L60.7446 54.8634C62.2472 54.7973 62.7578 54.6828 63.8654 54.1637C66.6014 52.8815 68.2313 50.6248 68.4607 47.8003C68.5267 46.9871 68.4897 45.2333 68.3782 43.9032C68.1361 41.0101 67.7205 40.0727 65.9552 38.437C64.4817 37.0718 63.1297 36.5496 60.719 36.4143L58.897 36.3122L58.8936 35.2056C58.8891 33.7612 58.4435 31.6916 57.9133 30.651C57.3503 29.5467 55.9179 28.14 54.8975 27.6896C53.3323 26.9984 49.4601 26.6289 46.8985 26.9264ZM142.703 32.1513C143.136 32.3175 143.598 33.26 143.598 33.9755C143.598 34.3183 143.387 34.8131 143.088 35.168C142.662 35.6747 142.437 35.7746 141.719 35.7746C140.263 35.7746 139.462 35.1376 139.462 33.9812C139.462 33.444 139.976 32.4872 140.397 32.2418C140.781 32.018 142.21 31.9619 142.703 32.1513ZM51.7563 32.8904C52.8688 33.4663 53.0301 33.9307 53.2121 37.0817C53.4761 41.655 53.7089 41.8831 58.306 42.0759C59.9264 42.1437 61.3456 42.2977 61.5863 42.4317C61.8196 42.5617 62.2074 43.0754 62.4483 43.5736C62.8184 44.3387 62.8716 44.7087 62.7919 45.9557C62.6228 48.5909 61.9182 49.0749 57.9505 49.2819C56.4668 49.3592 54.9615 49.5423 54.6056 49.6886C53.6102 50.0978 53.3605 50.9444 53.2078 54.4247C53.1119 56.6138 52.9994 57.5047 52.7861 57.7626C51.6172 59.1757 47.6606 59.1757 46.4918 57.7626C46.2784 57.5047 46.166 56.6138 46.07 54.4247C45.9174 50.9444 45.6676 50.0978 44.6723 49.6886C44.3163 49.5423 42.811 49.3592 41.3274 49.2819C37.3596 49.0749 36.655 48.5909 36.486 45.9557C36.4062 44.7087 36.4594 44.3387 36.8295 43.5736C37.0704 43.0754 37.4583 42.5622 37.6915 42.4331C37.9277 42.3024 39.3859 42.1415 40.9822 42.07C45.6042 41.8628 45.8697 41.601 46.0407 37.0838C46.1055 35.3675 46.2461 34.0979 46.4065 33.7805C46.6334 33.3312 47.1186 33.0089 48.2601 32.5493C48.8018 32.3311 51.1109 32.5564 51.7563 32.8904ZM151.735 37.945C149.437 38.2811 147.547 39.7328 146.41 42.0363C145.691 43.4904 145.667 43.6108 145.667 45.6308C145.667 47.6507 145.692 47.7714 146.41 49.2263C147.261 50.9517 148.42 52.1073 150.099 52.9044C151.053 53.3578 151.429 53.4189 153.255 53.4189C155.206 53.4189 155.406 53.3803 156.659 52.763C158.352 51.9283 159.739 50.5404 160.573 48.8454C161.176 47.6188 161.228 47.3645 161.228 45.6361C161.228 43.8652 161.189 43.6866 160.539 42.4828C159.724 40.9743 158.014 39.1568 156.853 38.564C156.398 38.3314 155.423 38.054 154.687 37.9475C153.205 37.733 153.183 37.733 151.735 37.945ZM127.116 38.2269C125.908 38.6048 125.03 39.2077 123.926 40.4169C121.757 42.7917 121.35 46.5035 122.92 49.5833C124.354 52.3965 127.887 53.9845 131.247 53.3257C135.186 52.5531 137.492 49.6876 137.492 45.5649C137.492 42.206 135.339 39.126 132.384 38.2576C131.094 37.8785 128.281 37.8622 127.116 38.2269ZM130.673 43.8748C131.306 44.3728 131.78 45.2408 131.78 45.9026C131.78 46.5274 130.946 47.5226 130.283 47.689C129.423 47.905 128.43 47.452 128.116 46.7009C127.577 45.409 127.823 44.4966 128.887 43.8476C129.686 43.3597 130.026 43.3648 130.673 43.8748ZM154.127 43.7421C154.94 44.082 155.22 44.5644 155.22 45.6217C155.22 47.2669 153.318 48.4584 152.245 47.4859C151.109 46.4572 151.051 45.1572 152.094 44.0897C152.773 43.3942 153.144 43.3309 154.127 43.7421ZM138.753 50.1195C137.148 50.6946 135.363 52.2913 134.557 53.8727C134.017 54.9316 133.691 56.8258 133.78 58.3897C133.92 60.8774 135.75 63.4746 138.211 64.6807C139.255 65.1923 139.557 65.2452 141.432 65.2463C143.271 65.2473 143.626 65.1884 144.642 64.7121C147.829 63.2173 149.971 59.3125 149.34 56.1492C148.829 53.5918 147.266 51.5571 144.994 50.4933C143.907 49.9841 143.452 49.8914 141.744 49.8305C140.185 49.7749 139.541 49.8372 138.753 50.1195ZM142.749 55.8734C143.662 56.4307 143.89 56.9574 143.616 57.8732C143.033 59.8202 140.531 59.9296 139.56 58.0506C139.165 57.2861 139.298 56.8565 140.168 56.0926C140.98 55.3781 141.82 55.3068 142.749 55.8734ZM72.145 75.7842C71.3195 75.9875 70.9145 76.3343 70.5867 77.1191C69.9986 78.5273 70.4666 80.0613 71.6666 80.6588C72.3286 80.9884 73.0185 81.019 79.7857 81.019C87.9873 81.019 87.8713 81.0363 88.5598 79.704C89.0631 78.7299 88.8649 76.915 88.1802 76.2296L87.6476 75.6961L80.2157 75.6616C76.1284 75.6425 72.4965 75.6979 72.145 75.7842ZM105.384 75.937C104.499 76.3871 103.714 77.8708 103.903 78.7351C104.071 79.4988 104.669 80.2497 105.451 80.6779C106.009 80.9839 106.824 81.019 113.362 81.019C121.554 81.019 121.681 81.0006 122.335 79.7172C123.041 78.3311 122.669 76.6911 121.503 76.0541C120.908 75.7292 120.163 75.691 113.46 75.6413C106.705 75.591 106.015 75.6163 105.384 75.937Z" fill="#1D1D20"/>
</svg>
