<svg width="156" height="58" viewBox="0 0 156 58" fill="none" xmlns="http://www.w3.org/2000/svg">
<path fill-rule="evenodd" clip-rule="evenodd" d="M0.539062 55.1263L19.6738 2.50568H29.2412L47.6207 55.1263H40.8228L35.7873 44.0483H12.6242L8.34404 55.1263H0.539062ZM14.6385 36.9987L24.2059 11.5696L33.0179 36.9987H14.6385Z" fill="#FC0101"/>
<path fill-rule="evenodd" clip-rule="evenodd" d="M5.57617 53.1119L24.711 0.491302H34.2783L52.6578 53.1119H45.8599L40.8245 42.0339H17.6613L13.3811 53.1119H5.57617ZM19.6756 34.9843L29.243 9.55523L38.0551 34.9843H19.6756Z" stroke="#FC0101" stroke-width="0.832747"/>
<path d="M65.4975 25.9752C65.8624 25.6103 66.4541 25.6103 66.8191 25.9752L71.1916 30.3478C71.5566 30.7127 71.5566 31.3044 71.1916 31.6694C70.8267 32.0344 70.2349 32.0344 69.87 31.6694L65.4975 27.2969C65.1325 26.9319 65.1325 26.3402 65.4975 25.9752Z" fill="#FC0101"/>
<path d="M65.4964 36.0445C65.1314 35.6796 65.1314 35.0878 65.4964 34.7229L69.8689 30.3503C70.2339 29.9854 70.8256 29.9854 71.1906 30.3503C71.5555 30.7153 71.5555 31.307 71.1906 31.672L66.818 36.0445C66.4531 36.4095 65.8613 36.4095 65.4964 36.0445Z" fill="#FC0101"/>
<path fill-rule="evenodd" clip-rule="evenodd" d="M104.516 4.29611C103.385 4.29611 102.469 5.21242 102.469 6.34274V29.9309H106.562V6.34274C106.562 5.21242 105.646 4.29611 104.516 4.29611ZM106.562 31.9898H102.469V55.5779C102.469 56.7083 103.385 57.6246 104.516 57.6246C105.646 57.6246 106.562 56.7083 106.562 55.5779V31.9898ZM100.569 29.9309V13.2191C100.569 12.0888 99.6522 11.1725 98.5219 11.1725C97.3916 11.1725 96.4753 12.0888 96.4753 13.2191V29.9309H100.569ZM96.4753 31.9898H100.569V48.7016C100.569 49.8319 99.6522 50.7482 98.5219 50.7482C97.3916 50.7482 96.4753 49.8319 96.4753 48.7016V31.9898ZM94.1144 29.9309V20.3576C94.1144 19.2273 93.1981 18.311 92.0677 18.311C90.9374 18.311 90.0211 19.2273 90.0211 20.3576V29.9309H94.1144ZM90.0211 31.9898H94.1144V41.5631C94.1144 42.6934 93.1981 43.6097 92.0677 43.6097C90.9374 43.6097 90.0211 42.6934 90.0211 41.5631V31.9898ZM88.1206 29.9309V27.2584C88.1206 26.1281 87.2043 25.2118 86.074 25.2118C84.9436 25.2118 84.0273 26.1281 84.0273 27.2584V29.9309H88.1206ZM84.0273 31.9898H88.1206V34.6622C88.1206 35.7925 87.2043 36.7089 86.074 36.7089C84.9436 36.7089 84.0273 35.7925 84.0273 34.6622V31.9898ZM108.923 31.9898H113.016V46.0284C113.016 47.1587 112.1 48.075 110.97 48.075C109.84 48.075 108.923 47.1587 108.923 46.0284V31.9898ZM113.016 29.9309H108.923V15.8923C108.923 14.762 109.84 13.8457 110.97 13.8457C112.1 13.8457 113.016 14.762 113.016 15.8923V29.9309ZM114.917 31.9898V39.1275C114.917 40.2578 115.833 41.1741 116.964 41.1741C118.094 41.1741 119.01 40.2578 119.01 39.1275V31.9898H114.917ZM119.01 29.9309H114.917V22.7932C114.917 21.6629 115.833 20.7466 116.964 20.7466C118.094 20.7466 119.01 21.6629 119.01 22.7932V29.9309ZM120.911 31.9898V46.9756C120.911 48.1059 121.827 49.0222 122.957 49.0222C124.088 49.0222 125.004 48.1059 125.004 46.9756V31.9898H120.911ZM125.004 29.9309H120.911V14.9451C120.911 13.8148 121.827 12.8985 122.957 12.8985C124.088 12.8985 125.004 13.8148 125.004 14.9451V29.9309ZM127.365 31.9898V48.7016C127.365 49.8319 128.281 50.7482 129.412 50.7482C130.542 50.7482 131.458 49.8319 131.458 48.7016V31.9898H127.365ZM131.458 29.9309H127.365V13.2191C127.365 12.0888 128.281 11.1725 129.412 11.1725C130.542 11.1725 131.458 12.0888 131.458 13.2191V29.9309ZM133.359 31.9898V44.6753C133.359 45.8056 134.275 46.7219 135.405 46.7219C136.536 46.7219 137.452 45.8056 137.452 44.6753V31.9898H133.359ZM137.452 29.9309H133.359V17.2454C133.359 16.1151 134.275 15.1988 135.405 15.1988C136.536 15.1988 137.452 16.1151 137.452 17.2454V29.9309ZM139.352 31.9898V40.0746C139.352 41.205 140.269 42.1213 141.399 42.1213C142.529 42.1213 143.446 41.205 143.446 40.0746V31.9898H139.352ZM143.446 29.9309H139.352V21.846C139.352 20.7157 140.269 19.7994 141.399 19.7994C142.529 19.7994 143.446 20.7157 143.446 21.846V29.9309ZM145.346 31.9898V37.0978C145.346 38.2281 146.263 39.1444 147.393 39.1444C148.523 39.1444 149.44 38.2281 149.44 37.0978V31.9898H145.346ZM149.44 29.9309H145.346V24.8229C145.346 23.6926 146.263 22.7763 147.393 22.7763C148.523 22.7763 149.44 23.6926 149.44 24.8229V29.9309ZM151.8 31.9898V35.2779C151.8 36.4083 152.717 37.3246 153.847 37.3246C154.977 37.3246 155.894 36.4083 155.894 35.2779V31.9898H151.8ZM155.894 29.9309H151.8V26.6427C151.8 25.5124 152.717 24.5961 153.847 24.5961C154.977 24.5961 155.894 25.5124 155.894 26.6427V29.9309Z" fill="#FC0101"/>
</svg>
