<svg width="141" height="56" viewBox="0 0 141 56" fill="none" xmlns="http://www.w3.org/2000/svg">
<path fill-rule="evenodd" clip-rule="evenodd" d="M87.3828 55.7143L106.518 3.09369H116.085L134.464 55.7143H127.667L122.631 44.6363H99.4679L95.1878 55.7143H87.3828ZM101.482 37.5868L111.05 12.1576L119.862 37.5868H101.482Z" fill="#FC0101"/>
<path fill-rule="evenodd" clip-rule="evenodd" d="M92.4199 53.7L111.555 1.07941H121.122L139.502 53.7H132.704L127.668 42.622H104.505L100.225 53.7H92.4199ZM106.519 35.5724L116.087 10.1433L124.899 35.5724H106.519Z" stroke="#FC0101" stroke-width="0.832747"/>
<path fill-rule="evenodd" clip-rule="evenodd" d="M11.4368 6.67096C5.14094 6.67096 0.0371094 11.7748 0.0371094 18.0707V44.3146C0.0371094 50.6105 5.14094 55.7143 11.4368 55.7143H37.6807C43.9766 55.7143 49.0805 50.6105 49.0805 44.3146V18.0707C49.0805 11.7748 43.9766 6.67096 37.6807 6.67096H11.4368ZM12.0312 8.02525C6.15498 8.02525 1.3914 12.7888 1.3914 18.665V43.7203C1.3914 49.5964 6.15497 54.36 12.0311 54.36H37.0864C42.9626 54.36 47.7262 49.5964 47.7262 43.7203V18.665C47.7262 12.7888 42.9626 8.02525 37.0864 8.02525H12.0312Z" fill="#FC0101"/>
<path d="M6.5 7.79345C8.28715 3.83453 12.2681 1.07922 16.8948 1.07922H43.1395C49.4345 1.07922 54.5392 6.18313 54.5392 12.479V38.7228C54.5392 43.2491 51.9 47.1594 48.0779 48.9998C48.4044 48.2751 48.6597 47.5099 48.8304 46.7141C51.4711 44.778 53.184 41.6535 53.184 38.1285V13.0732C53.184 7.19712 48.4207 2.4335 42.5442 2.4335H17.4886C13.8757 2.4335 10.6844 4.23419 8.76065 6.98708C7.97247 7.17689 7.21545 7.44908 6.5 7.79345Z" fill="#FC0101"/>
<path d="M40.3644 39.2722L35.2658 27.3645C33.5391 23.3247 30.3626 23.1618 28.2287 27.0062L25.15 32.5609C23.5862 35.379 20.6704 35.6233 18.6505 33.0985L18.2922 32.6424C16.1908 30.0035 13.2261 30.3292 11.7112 33.3428L8.90943 38.9627C6.93841 42.8721 9.78907 47.4821 14.1546 47.4821H34.94C39.1752 47.4821 42.0259 43.1654 40.3644 39.2722Z" stroke="#E9201B" stroke-width="1.48969" stroke-linecap="round" stroke-linejoin="round"/>
<path d="M16.4031 24.6769C19.102 24.6769 21.2899 22.489 21.2899 19.7901C21.2899 17.0912 19.102 14.9033 16.4031 14.9033C13.7041 14.9033 11.5162 17.0912 11.5162 19.7901C11.5162 22.489 13.7041 24.6769 16.4031 24.6769Z" stroke="#E9201B" stroke-width="1.48969" stroke-linecap="round" stroke-linejoin="round"/>
<path d="M70.7455 23.3621C71.1105 22.9971 71.7022 22.9971 72.0671 23.3621L76.4397 27.7346C76.8046 28.0996 76.8046 28.6913 76.4397 29.0563C76.0747 29.4212 75.483 29.4212 75.118 29.0563L70.7455 24.6837C70.3805 24.3188 70.3805 23.7271 70.7455 23.3621Z" fill="#FC0101"/>
<path d="M70.7444 33.4314C70.3795 33.0664 70.3795 32.4747 70.7444 32.1097L75.117 27.7372C75.4819 27.3723 76.0736 27.3722 76.4386 27.7372C76.8036 28.1022 76.8036 28.6939 76.4386 29.0589L72.0661 33.4314C71.7011 33.7963 71.1094 33.7963 70.7444 33.4314Z" fill="#FC0101"/>
</svg>
