<svg width="144" height="56" viewBox="0 0 144 56" fill="none" xmlns="http://www.w3.org/2000/svg">
<path fill-rule="evenodd" clip-rule="evenodd" d="M12.0365 6.16846C5.74055 6.16846 0.636719 11.2723 0.636719 17.5682V43.8121C0.636719 50.108 5.74055 55.2118 12.0365 55.2118H38.2803C44.5762 55.2118 49.6801 50.108 49.6801 43.8121V17.5682C49.6801 11.2723 44.5762 6.16846 38.2803 6.16846H12.0365ZM12.6308 7.52275C6.75459 7.52275 1.99101 12.2863 1.99101 18.1625V43.2178C1.99101 49.0939 6.75458 53.8575 12.6308 53.8575H37.686C43.5622 53.8575 48.3258 49.0939 48.3258 43.2178V18.1625C48.3258 12.2863 43.5622 7.52275 37.686 7.52275H12.6308Z" fill="#FC0101"/>
<path d="M7.09961 7.29095C8.88675 3.33203 12.8678 0.576721 17.4944 0.576721H43.7391C50.0342 0.576721 55.1388 5.68062 55.1388 11.9765V38.2203C55.1388 42.7466 52.4996 46.6569 48.6775 48.4973C49.004 47.7726 49.2593 47.0074 49.43 46.2116C52.0707 44.2755 53.7836 41.151 53.7836 37.626V12.5707C53.7836 6.69461 49.0203 1.931 43.1438 1.931H18.0882C14.4753 1.931 11.284 3.73169 9.36026 6.48458C8.57207 6.67439 7.81506 6.94658 7.09961 7.29095Z" fill="#FC0101"/>
<path fill-rule="evenodd" clip-rule="evenodd" d="M11.3688 19.2876C11.3688 16.1773 13.8902 13.6559 17.0005 13.6559C20.1108 13.6559 22.6322 16.1773 22.6322 19.2876C22.6322 22.3979 20.1108 24.9193 17.0005 24.9193C13.8902 24.9193 11.3688 22.3979 11.3688 19.2876ZM17.0005 15.1456C14.713 15.1456 12.8585 17.0001 12.8585 19.2876C12.8585 21.5752 14.713 23.4296 17.0005 23.4296C19.2881 23.4296 21.1425 21.5752 21.1425 19.2876C21.1425 17.0001 19.2881 15.1456 17.0005 15.1456ZM32.5354 22.9825C34.2322 23.0691 35.639 24.4424 36.5481 26.5693L41.6466 38.4765C43.5178 42.8612 40.3068 47.7244 35.5374 47.7244H14.7521C9.8335 47.7244 6.62117 42.532 8.84105 38.1264C8.8413 38.1259 8.84155 38.1254 8.8418 38.1249L11.6421 32.508L11.6432 32.5058C12.4812 30.8388 13.7894 29.7922 15.2996 29.6299C16.8115 29.4673 18.3084 30.2142 19.4723 31.6759L19.4753 31.6797L19.8296 32.1307C19.8303 32.1315 19.831 32.1323 19.8316 32.1332C20.7254 33.2491 21.7347 33.661 22.6071 33.5885C23.4798 33.5161 24.4045 32.9433 25.096 31.6974C25.096 31.6973 25.0959 31.6975 25.096 31.6974L28.1747 26.1426C29.298 24.1189 30.8388 22.8959 32.5354 22.9825ZM29.4774 26.8652C29.4773 26.8653 29.4775 26.8651 29.4774 26.8652L26.3989 32.4195C25.5267 33.9914 24.2115 34.9501 22.7304 35.0731C21.2497 35.1961 19.792 34.4683 18.6664 33.0613L18.6623 33.0562L18.307 32.6039C18.3065 32.6033 18.306 32.6026 18.3055 32.602C17.3685 31.4263 16.333 31.017 15.4589 31.111C14.5829 31.2052 13.6516 31.828 12.9747 33.1738C12.9745 33.1742 12.9744 33.1745 12.9742 33.1749L10.1735 38.7925L10.172 38.7955C8.45127 42.2085 10.9401 46.2348 14.7521 46.2348H35.5374C39.2384 46.2348 41.7283 42.4641 40.277 39.0626C40.2769 39.0624 40.2771 39.0628 40.277 39.0626L35.1785 27.1552C34.3609 25.2424 33.316 24.5139 32.4594 24.4702C31.6027 24.4265 30.4879 25.0449 29.4774 26.8652Z" fill="#E9201B"/>
<path d="M69.4115 22.8597C69.7765 22.4947 70.3682 22.4947 70.7332 22.8597L75.1057 27.2322C75.4707 27.5972 75.4707 28.1889 75.1057 28.5538C74.7407 28.9188 74.149 28.9188 73.7841 28.5538L69.4115 24.1813C69.0466 23.8163 69.0466 23.2246 69.4115 22.8597Z" fill="#FC0101"/>
<path d="M69.4104 32.9289C69.0455 32.564 69.0455 31.9723 69.4104 31.6073L73.783 27.2348C74.1479 26.8698 74.7397 26.8698 75.1046 27.2348C75.4696 27.5997 75.4696 28.1914 75.1046 28.5564L70.7321 32.9289C70.3671 33.2939 69.7754 33.2939 69.4104 32.9289Z" fill="#FC0101"/>
<path fill-rule="evenodd" clip-rule="evenodd" d="M96.375 6.79544C97.8036 6.17089 99.3816 5.82441 101.041 5.82441H126.765C133.203 5.82441 138.423 11.0441 138.423 17.4829V43.2094C138.423 45.3142 137.865 47.2887 136.889 48.9932C141.006 47.1937 143.882 43.0857 143.882 38.3058V12.5793C143.882 6.14051 138.663 0.920837 132.224 0.920837H106.5C102.166 0.920837 98.3843 3.28571 96.375 6.79544Z" fill="#B1130F"/>
<path fill-rule="evenodd" clip-rule="evenodd" d="M101.039 5.82434C94.6005 5.82434 89.3809 11.044 89.3809 17.4828V43.2093C89.3809 49.6481 94.6005 54.8678 101.039 54.8678H126.763C133.202 54.8678 138.422 49.6481 138.422 43.2093V17.4828C138.422 11.044 133.202 5.82434 126.763 5.82434H101.039ZM110.632 18.9435C110.632 21.6425 108.444 23.8304 105.745 23.8304C103.046 23.8304 100.858 21.6425 100.858 18.9435C100.858 16.2446 103.046 14.0567 105.745 14.0567C108.444 14.0567 110.632 16.2446 110.632 18.9435ZM124.608 26.518L129.706 38.4256C131.368 42.3188 128.517 46.6355 124.282 46.6355H103.497C99.1312 46.6355 96.2805 42.0256 98.2515 38.1161L101.053 32.4962C102.568 29.4827 105.533 29.1569 107.634 31.7958L107.993 32.2519C110.013 34.7768 112.928 34.5324 114.492 31.7143L117.571 26.1596C119.705 22.3153 122.881 22.4782 124.608 26.518Z" fill="#E9201B"/>
</svg>
