<svg width="127" height="56" viewBox="0 0 127 56" fill="none" xmlns="http://www.w3.org/2000/svg">
<path fill-rule="evenodd" clip-rule="evenodd" d="M0.246094 55.707L19.3809 3.08636H28.9483L47.3277 55.707H40.5298L35.4944 44.629H12.3312L8.05107 55.707H0.246094ZM14.3455 37.5794L23.9129 12.1503L32.725 37.5794H14.3455Z" fill="#FC0101"/>
<path fill-rule="evenodd" clip-rule="evenodd" d="M24.1271 0.65564H34.2817L52.952 54.109H45.2996L40.2641 43.031H17.6545L13.3744 54.109H4.68945L24.1271 0.65564ZM24.7103 1.48839L5.87837 53.2763H12.8034L17.0835 42.1982H40.8003L45.8358 53.2763H51.7791L33.6905 1.48839H24.7103ZM28.9669 8.91075L38.3478 35.9814H18.7818L28.9669 8.91075ZM19.9849 35.1487H37.1779L28.9347 11.3611L19.9849 35.1487Z" fill="#FC0101"/>
<path d="M65.2045 23.3549C65.5694 22.9899 66.1612 22.9899 66.5261 23.3549L70.8987 27.7274C71.2636 28.0924 71.2636 28.6841 70.8987 29.0491C70.5337 29.414 69.942 29.414 69.577 29.0491L65.2045 24.6765C64.8395 24.3116 64.8395 23.7199 65.2045 23.3549Z" fill="#FC0101"/>
<path d="M65.2034 33.4242C64.8384 33.0592 64.8384 32.4675 65.2034 32.1025L69.5759 27.73C69.9409 27.365 70.5326 27.365 70.8976 27.73C71.2625 28.095 71.2625 28.6867 70.8976 29.0516L66.525 33.4242C66.1601 33.7891 65.5684 33.7891 65.2034 33.4242Z" fill="#FC0101"/>
<path fill-rule="evenodd" clip-rule="evenodd" d="M88.2353 3.60677C86.9653 3.60677 85.9358 4.63633 85.9358 5.90635V45.6854C85.9358 46.9554 86.9653 47.985 88.2353 47.985H117.813C119.083 47.985 120.113 46.9554 120.113 45.6854V5.90635C120.113 4.63633 119.083 3.60677 117.813 3.60677H88.2353ZM84.4082 5.90635C84.4082 3.79268 86.1217 2.07922 88.2353 2.07922H117.813C119.927 2.07922 121.64 3.79268 121.64 5.90635V45.6854C121.64 47.7991 119.927 49.5125 117.813 49.5125H88.2353C86.1217 49.5125 84.4082 47.7991 84.4082 45.6854V5.90635Z" fill="#FC0101"/>
<path fill-rule="evenodd" clip-rule="evenodd" d="M89.9004 25.8876C89.9004 25.4658 90.2423 25.1238 90.6642 25.1238H102.351C102.773 25.1238 103.115 25.4658 103.115 25.8876C103.115 26.3094 102.773 26.6514 102.351 26.6514H90.6642C90.2423 26.6514 89.9004 26.3094 89.9004 25.8876Z" fill="#FC0101"/>
<path fill-rule="evenodd" clip-rule="evenodd" d="M89.9453 20.3632C89.9453 19.9414 90.2873 19.5994 90.7091 19.5994H111.669C112.091 19.5994 112.433 19.9414 112.433 20.3632C112.433 20.785 112.091 21.127 111.669 21.127H90.7091C90.2873 21.127 89.9453 20.785 89.9453 20.3632Z" fill="#FC0101"/>
<path fill-rule="evenodd" clip-rule="evenodd" d="M89.9004 9.31443C89.9004 8.89261 90.2423 8.55066 90.6642 8.55066H115.341C115.763 8.55066 116.105 8.89261 116.105 9.31443C116.105 9.73626 115.763 10.0782 115.341 10.0782H90.6642C90.2423 10.0782 89.9004 9.73626 89.9004 9.31443Z" fill="#FC0101"/>
<path fill-rule="evenodd" clip-rule="evenodd" d="M89.9453 14.8389C89.9453 14.4171 90.2873 14.0751 90.7091 14.0751H115.386C115.808 14.0751 116.15 14.4171 116.15 14.8389C116.15 15.2607 115.808 15.6027 115.386 15.6027H90.7091C90.2873 15.6027 89.9453 15.2607 89.9453 14.8389Z" fill="#FC0101"/>
<path fill-rule="evenodd" clip-rule="evenodd" d="M89.0137 49.5126V50.8728C89.0137 52.9865 90.7271 54.6999 92.8408 54.6999H122.419C124.532 54.6999 126.246 52.9865 126.246 50.8728V11.0937C126.246 8.98006 124.532 7.2666 122.419 7.2666H121.64V8.79415H122.419C123.689 8.79415 124.718 9.82371 124.718 11.0937V50.8728C124.718 52.1428 123.689 53.1724 122.419 53.1724H92.8408C91.5708 53.1724 90.5412 52.1428 90.5412 50.8728V49.5126H89.0137Z" fill="#FC0101"/>
</svg>
