<svg width="140" height="56" viewBox="0 0 140 56" fill="none" xmlns="http://www.w3.org/2000/svg">
<path fill-rule="evenodd" clip-rule="evenodd" d="M0.455078 55.3309L19.5899 2.7103H29.1573L47.5367 55.3309H40.7388L35.7034 44.2529H12.5402L8.26006 55.3309H0.455078ZM14.5545 37.2034L24.1219 11.7743L32.9339 37.2034H14.5545Z" fill="#FC0101"/>
<path fill-rule="evenodd" clip-rule="evenodd" d="M5.49219 53.3166L24.627 0.695953H34.1944L52.5738 53.3166H45.7759L40.7405 42.2386H17.5773L13.2972 53.3166H5.49219ZM19.5916 35.189L29.159 9.75988L37.9711 35.189H19.5916Z" stroke="#FC0101" stroke-width="0.832747"/>
<path fill-rule="evenodd" clip-rule="evenodd" d="M96.5111 6.2877C90.2152 6.2877 85.1113 11.3915 85.1113 17.6874V43.9313C85.1113 50.2272 90.2152 55.331 96.5111 55.331H122.755C129.051 55.331 134.155 50.2272 134.155 43.9313V17.6874C134.155 11.3915 129.051 6.2877 122.755 6.2877H96.5111ZM97.1054 7.642C91.2292 7.642 86.4656 12.4056 86.4656 18.2817V43.337C86.4656 49.2132 91.2292 53.9768 97.1054 53.9768H122.161C128.037 53.9768 132.8 49.2132 132.8 43.337V18.2817C132.8 12.4056 128.037 7.642 122.161 7.642H97.1054Z" fill="#FC0101"/>
<path d="M91.5742 7.41019C93.3614 3.45127 97.3424 0.695969 101.969 0.695969H128.214C134.509 0.695969 139.613 5.79987 139.613 12.0957V38.3396C139.613 42.8659 136.974 46.7762 133.152 48.6166C133.479 47.8919 133.734 47.1267 133.905 46.3309C136.545 44.3947 138.258 41.2702 138.258 37.7453V12.69C138.258 6.81386 133.495 2.05024 127.618 2.05024H102.563C98.9499 2.05024 95.7586 3.85093 93.8349 6.60383C93.0467 6.79364 92.2897 7.06583 91.5742 7.41019Z" fill="#FC0101"/>
<path d="M125.441 38.889L120.342 26.9813C118.615 22.9415 115.439 22.7787 113.305 26.623L110.226 32.1777C108.662 34.9958 105.747 35.2401 103.727 32.7153L103.368 32.2592C101.267 29.6203 98.3023 29.9461 96.7874 32.9596L93.9856 38.5795C92.0146 42.489 94.8652 47.0989 99.2308 47.0989H120.016C124.251 47.0989 127.102 42.7822 125.441 38.889Z" stroke="#E9201B" stroke-width="1.48969" stroke-linecap="round" stroke-linejoin="round"/>
<path d="M101.479 24.2938C104.178 24.2938 106.366 22.1058 106.366 19.4069C106.366 16.708 104.178 14.5201 101.479 14.5201C98.7803 14.5201 96.5924 16.708 96.5924 19.4069C96.5924 22.1058 98.7803 24.2938 101.479 24.2938Z" stroke="#E9201B" stroke-width="1.48969" stroke-linecap="round" stroke-linejoin="round"/>
<path d="M65.4115 22.9789C65.7765 22.6139 66.3682 22.6139 66.7332 22.9789L71.1057 27.3514C71.4707 27.7164 71.4707 28.3081 71.1057 28.673C70.7407 29.038 70.149 29.038 69.7841 28.673L65.4115 24.3005C65.0466 23.9355 65.0466 23.3438 65.4115 22.9789Z" fill="#FC0101"/>
<path d="M65.4104 33.0481C65.0455 32.6832 65.0455 32.0915 65.4104 31.7265L69.783 27.354C70.1479 26.989 70.7397 26.989 71.1046 27.354C71.4696 27.7189 71.4696 28.3107 71.1046 28.6756L66.7321 33.0481C66.3671 33.4131 65.7754 33.4131 65.4104 33.0481Z" fill="#FC0101"/>
</svg>
