<svg width="140" height="56" viewBox="0 0 140 56" fill="none" xmlns="http://www.w3.org/2000/svg">
<path fill-rule="evenodd" clip-rule="evenodd" d="M113.481 35.3485L103.573 41.0694C101.522 42.2535 98.9579 40.7733 98.9579 38.4051L98.9579 26.9634C98.9579 24.5952 101.522 23.115 103.573 24.2991L113.481 30.02C115.532 31.2041 115.532 34.1644 113.481 35.3485ZM112.712 34.0164C113.738 33.4243 113.738 31.9442 112.712 31.3521L102.803 25.6313C101.778 25.0392 100.496 25.7793 100.496 26.9634L100.496 38.4051C100.496 39.5892 101.778 40.3293 102.803 39.7372L112.712 34.0164Z" fill="#FC0101"/>
<rect x="85.1726" y="54.4981" width="43.6304" height="43.6304" rx="11.6585" transform="rotate(-90 85.1726 54.4981)" stroke="#FC0101" stroke-width="1.66549"/>
<path fill-rule="evenodd" clip-rule="evenodd" d="M127.723 49.4864C131.806 47.432 134.607 43.2037 134.607 38.3211L134.607 18.0077C134.607 11.109 129.015 5.51647 122.116 5.51647L101.803 5.51647C97.3466 5.51647 93.4356 7.84965 91.2246 11.361C92.1512 10.8948 93.1437 10.5406 94.1845 10.316C96.1406 8.37853 98.8318 7.18196 101.803 7.18196L122.116 7.18196C128.095 7.18196 132.942 12.0288 132.942 18.0077L132.942 38.3211C132.942 41.6626 131.428 44.6505 129.048 46.6363C128.726 47.6485 128.278 48.6046 127.723 49.4864Z" fill="#FC0101"/>
<path fill-rule="evenodd" clip-rule="evenodd" d="M132.957 44.5293C136.897 42.4279 139.578 38.2774 139.578 33.5007L139.578 13.1872C139.578 6.2885 133.985 0.695999 127.087 0.695999L106.773 0.696C102.134 0.696 98.086 3.22479 95.9316 6.97907C96.8229 6.5037 97.7785 6.13319 98.782 5.88402C100.761 3.71926 103.609 2.36149 106.773 2.36149L127.087 2.36149C133.066 2.36149 137.912 7.20833 137.912 13.1872L137.912 33.5007C137.912 36.7849 136.45 39.7276 134.141 41.713C133.861 42.7076 133.461 43.6519 132.957 44.5293Z" fill="#FC0101"/>
<path fill-rule="evenodd" clip-rule="evenodd" d="M0.853516 55.3309L19.9883 2.71028H29.5557L47.9352 55.3309H41.1373L36.1018 44.2529H12.9386L8.65849 55.3309H0.853516ZM14.9529 37.2033L24.5203 11.7742L33.3324 37.2033H14.9529Z" fill="#FC0101"/>
<path fill-rule="evenodd" clip-rule="evenodd" d="M5.89062 53.3166L25.0254 0.695938H34.5928L52.9723 53.3166H46.1744L41.1389 42.2385H17.9758L13.6956 53.3166H5.89062ZM19.9901 35.189L29.5575 9.75987L38.3696 35.189H19.9901Z" stroke="#FC0101" stroke-width="0.832747"/>
<path d="M65.81 22.9788C66.1749 22.6138 66.7666 22.6138 67.1316 22.9788L71.5041 27.3513C71.8691 27.7163 71.8691 28.308 71.5041 28.6729C71.1392 29.0379 70.5474 29.0379 70.1825 28.6729L65.81 24.3004C65.445 23.9354 65.445 23.3437 65.81 22.9788Z" fill="#FC0101"/>
<path d="M65.8089 33.0481C65.4439 32.6831 65.4439 32.0914 65.8089 31.7264L70.1814 27.3539C70.5464 26.9889 71.1381 26.9889 71.5031 27.3539C71.868 27.7188 71.868 28.3106 71.5031 28.6755L67.1305 33.0481C66.7656 33.413 66.1738 33.413 65.8089 33.0481Z" fill="#FC0101"/>
</svg>
