<svg width="151" height="60" viewBox="0 0 151 60" fill="none" xmlns="http://www.w3.org/2000/svg">
<path d="M95.998 7.04367C98.4137 2.83981 102.949 0.00875854 108.145 0.00875854H136.991C144.723 0.00875854 150.991 6.27677 150.991 14.0088V39.9211C150.991 45.0632 148.219 49.5578 144.087 51.9919C145.266 49.9406 145.94 47.5624 145.94 45.0268V19.1144C145.94 11.3825 139.672 5.11444 131.94 5.11444H103.094C100.505 5.11444 98.0789 5.8177 95.998 7.04367Z" fill="#B1130F"/>
<path d="M114.317 5.11444H103.094C102.585 5.11444 102.083 5.14153 101.589 5.19435L106.866 11.8252C107.084 12.1036 107.084 12.4952 106.866 12.7735L101.959 19.0281L114.674 19.0281L119.954 12.2993L114.317 5.11444Z" fill="#FC0101"/>
<path d="M99.9872 5.46031C100.388 5.36953 100.795 5.29594 101.208 5.24035L99.9872 5.46031Z" fill="#FC0101"/>
<path d="M99.8424 5.49395C93.7052 6.95354 89.1337 12.4536 89.094 19.0281L100.006 19.0281L105.285 12.2993L99.8424 5.49395Z" fill="#FC0101"/>
<path fill-rule="evenodd" clip-rule="evenodd" d="M89.0938 20.5646V45.0268C89.0938 52.7588 95.3618 59.0268 103.094 59.0268H131.939C139.671 59.0268 145.939 52.7588 145.939 45.0268V20.5646L89.0938 20.5646ZM125.993 35.4997L114.651 28.9505C114.354 28.779 114.017 28.6887 113.675 28.6886C113.332 28.6885 112.995 28.7786 112.698 28.9499C112.402 29.1212 112.155 29.3677 111.984 29.6645C111.813 29.9613 111.723 30.298 111.723 30.6407V43.7386C111.723 44.0813 111.813 44.4179 111.984 44.7147C112.155 45.0115 112.402 45.258 112.698 45.4293C112.995 45.6006 113.332 45.6908 113.675 45.6907C114.017 45.6906 114.354 45.6002 114.651 45.4287L125.993 38.8795C126.29 38.7083 126.536 38.4619 126.708 38.1653C126.879 37.8687 126.969 37.5322 126.969 37.1896C126.969 36.8471 126.879 36.5106 126.708 36.2139C126.536 35.9173 126.29 35.671 125.993 35.4997Z" fill="#FC0101"/>
<path d="M145.939 19.0281C145.893 11.3359 139.643 5.11444 131.939 5.11444H131.134L136.199 11.8251C136.418 12.1036 136.418 12.4952 136.199 12.7736L131.291 19.0281L145.939 19.0281Z" fill="#FC0101"/>
<path d="M128.981 5.11444H116.185L121.535 11.8251C121.754 12.1036 121.754 12.4952 121.535 12.7736L116.627 19.0281L129.338 19.0281L134.618 12.2993L128.981 5.11444Z" fill="#FC0101"/>
<path fill-rule="evenodd" clip-rule="evenodd" d="M12.8337 4.50505C13.1702 4.24669 13.6525 4.31008 13.9109 4.64664L19.5468 11.9883C19.7586 12.2642 19.7586 12.648 19.5467 12.9239L13.9108 20.2643C13.6525 20.6008 13.1702 20.6641 12.8336 20.4058C12.4971 20.1474 12.4337 19.6651 12.6921 19.3285L17.9688 12.456L12.6921 5.58226C12.4337 5.2457 12.4971 4.76342 12.8337 4.50505Z" fill="#FC0101"/>
<path fill-rule="evenodd" clip-rule="evenodd" d="M27.5016 4.50512C27.8381 4.24671 28.3204 4.31003 28.5788 4.64656L34.2162 11.9882C34.4281 12.2641 34.4281 12.6481 34.2162 12.924L28.5788 20.2643C28.3203 20.6008 27.838 20.6641 27.5015 20.4057C27.165 20.1473 27.1017 19.665 27.3602 19.3285L32.6382 12.456L27.3601 5.58234C27.1017 5.24581 27.165 4.76352 27.5016 4.50512Z" fill="#FC0101"/>
<path fill-rule="evenodd" clip-rule="evenodd" d="M42.1656 4.50512C42.5022 4.24671 42.9844 4.31003 43.2429 4.64656L48.8803 11.9882C49.0922 12.2641 49.0922 12.6481 48.8802 12.924L43.2428 20.2643C42.9844 20.6008 42.5021 20.6641 42.1656 20.4057C41.8291 20.1473 41.7658 19.665 42.0242 19.3285L47.3023 12.456L42.0242 5.58234C41.7658 5.24581 41.8291 4.76352 42.1656 4.50512Z" fill="#FC0101"/>
<path fill-rule="evenodd" clip-rule="evenodd" d="M0.998047 19.7964C0.998047 19.3721 1.342 19.0281 1.7663 19.0281H58.6168C59.041 19.0281 59.385 19.3721 59.385 19.7964C59.385 20.2206 59.041 20.5646 58.6168 20.5646H1.7663C1.342 20.5646 0.998047 20.2206 0.998047 19.7964Z" fill="#FC0101"/>
<path fill-rule="evenodd" clip-rule="evenodd" d="M24.9908 28.2846C25.4045 28.0458 25.8737 27.9202 26.3513 27.9203C26.8288 27.9205 27.2978 28.0463 27.7112 28.2852L39.0539 34.8344C39.0539 34.8344 39.0539 34.8344 39.0539 34.8344C39.4674 35.0731 39.8107 35.4164 40.0494 35.8298C40.2881 36.2433 40.4137 36.7122 40.4137 37.1896C40.4137 37.667 40.2881 38.136 40.0494 38.5494C39.8107 38.9628 39.4674 39.3062 39.0539 39.5449M39.0539 39.5449L27.7115 46.0938C27.7114 46.0939 27.7117 46.0938 27.7115 46.0938C27.2981 46.3327 26.8288 46.4588 26.3513 46.4589C25.8737 46.4591 25.4045 46.3334 24.9908 46.0947C24.5772 45.8559 24.2337 45.5124 23.995 45.0988C23.7563 44.6852 23.6307 44.2161 23.6309 43.7386L23.6309 30.641C23.6309 30.6409 23.6309 30.6411 23.6309 30.641C23.6307 30.1635 23.7563 29.6941 23.995 29.2805C24.2337 28.8668 24.5772 28.5233 24.9908 28.2846M26.3508 29.4568C26.1431 29.4568 25.9389 29.5114 25.759 29.6153C25.579 29.7191 25.4296 29.8686 25.3258 30.0485C25.2219 30.2285 25.1673 30.4326 25.1674 30.6404V43.7386C25.1673 43.9463 25.2219 44.1508 25.3258 44.3307C25.4296 44.5107 25.579 44.6601 25.759 44.764C25.9389 44.8678 26.1431 44.9225 26.3508 44.9224C26.5586 44.9224 26.7627 44.8676 26.9426 44.7636L38.2857 38.2142C38.4655 38.1104 38.6149 37.961 38.7187 37.7812C38.8226 37.6013 38.8772 37.3973 38.8772 37.1896C38.8772 36.9819 38.8226 36.7779 38.7187 36.5981C38.6149 36.4182 38.4655 36.2689 38.2857 36.165L26.9429 29.6158C26.763 29.5119 26.5586 29.4569 26.3508 29.4568Z" fill="#FC0101"/>
<path fill-rule="evenodd" clip-rule="evenodd" d="M14.5923 4.35193C7.10597 4.35193 1.03711 10.0418 1.03711 17.0607V46.3181C1.03711 53.3369 7.10597 59.0268 14.5923 59.0268H45.7983C53.2847 59.0268 59.3535 53.3369 59.3535 46.3181V17.0607C59.3535 10.0418 53.2847 4.35193 45.7983 4.35193H14.5923ZM15.299 5.86173C8.31174 5.86173 2.64747 11.1723 2.64747 17.7232V45.6555C2.64747 52.2064 8.31173 57.517 15.299 57.517H45.0916C52.0789 57.517 57.7432 52.2064 57.7432 45.6555V17.7232C57.7432 11.1723 52.0789 5.86173 45.0917 5.86173H15.299Z" fill="#FC0101"/>
<path d="M71.7455 26.6547C72.1105 26.2897 72.7022 26.2897 73.0671 26.6547L77.4397 31.0272C77.8046 31.3922 77.8046 31.9839 77.4397 32.3489C77.0747 32.7138 76.483 32.7138 76.118 32.3489L71.7455 27.9763C71.3805 27.6114 71.3805 27.0197 71.7455 26.6547Z" fill="#FC0101"/>
<path d="M71.7444 36.724C71.3795 36.359 71.3795 35.7673 71.7444 35.4023L76.117 31.0298C76.4819 30.6649 77.0736 30.6649 77.4386 31.0298C77.8036 31.3948 77.8036 31.9865 77.4386 32.3515L73.0661 36.724C72.7011 37.089 72.1094 37.089 71.7444 36.724Z" fill="#FC0101"/>
</svg>
